# xmcd
#
# Track frame offsets:
#	150
#	16783
#	33135
#	49949
#	66045
#	81775
#	100262
#	115385
#	133455
#	151918
#	168960
#	185804
#	203596
#	219323
#
# Disc length: 3200 seconds
#
# Revision: 0
# Processed by: cddbd v1.4PL0 Copyright (c) Steve Scherf et al.
# Submitted via: EasyCDDAExtractor 4.6.0.1
#
DISCID=ba0c7e0e
DTITLE=5tion - INCREDIBLE-true image of new
DYEAR=2001
DGENRE=
TTITLE0=Feel
TTITLE1=More than words
TTITLE2=이제 우리
TTITLE3=Always
TTITLE4=Bye bye
TTITLE5=She's gone
TTITLE6=My Girl
TTITLE7=With You
TTITLE8=말해
TTITLE9=Happy
TTITLE10=미로
TTITLE11=Good Night
TTITLE12=벽
TTITLE13=Without You
EXTD=
EXTT0=
EXTT1=
EXTT2=
EXTT3=
EXTT4=
EXTT5=
EXTT6=
EXTT7=
EXTT8=
EXTT9=
EXTT10=
EXTT11=
EXTT12=
EXTT13=
PLAYORDER=
